<svg  viewBox="0 0 30 30" fill="none" xmlns="http://www.w3.org/2000/svg">
<g clip-path="url(#clip0)">
<path d="M15 30C23.2843 30 30 23.2843 30 15C30 6.71573 23.2843 0 15 0C6.71573 0 0 6.71573 0 15C0 23.2843 6.71573 30 15 30Z" fill="#F7F7F7"/>
<path d="M14.9999 0C9.05297 0 3.91453 3.46084 1.48828 8.47828H28.5114C26.0852 3.46084 20.9467 0 14.9999 0Z" fill="#338AF3"/>
<path d="M14.9999 30.0017C20.9467 30.0017 26.0852 26.5409 28.5115 21.5234H1.48828C3.91453 26.5409 9.05297 30.0017 14.9999 30.0017Z" fill="#338AF3"/>
<path d="M19.4822 14.9992L17.6503 15.861L18.6258 17.6351L16.6366 17.2546L16.3845 19.2641L14.9989 17.7861L13.6133 19.2641L13.3613 17.2546L11.372 17.6351L12.3475 15.8609L10.5156 14.9992L12.3476 14.1375L11.372 12.3634L13.3612 12.7439L13.6134 10.7344L14.9989 12.2123L16.3845 10.7344L16.6366 12.7439L18.6259 12.3634L17.6503 14.1376L19.4822 14.9992Z" fill="#FFDA44"/>
</g>
<defs>
<clipPath id="clip0">
<rect width="30" height="30" fill="white"/>
</clipPath>
</defs>
</svg>
