<svg viewBox="0 0 30 30" fill="none" xmlns="http://www.w3.org/2000/svg">
<path d="M15 30C23.2843 30 30 23.2843 30 15C30 6.71573 23.2843 0 15 0C6.71573 0 0 6.71573 0 15C0 23.2843 6.71573 30 15 30Z" fill="#6DA544"/>
<path d="M15.0007 5.87109L27.392 15.0015L15.0007 24.132L2.60938 15.0015L15.0007 5.87109Z" fill="#FFDA44"/>
<path d="M15.0006 20.216C17.882 20.216 20.2179 17.8801 20.2179 14.9986C20.2179 12.1171 17.882 9.78125 15.0006 9.78125C12.1191 9.78125 9.7832 12.1171 9.7832 14.9986C9.7832 17.8801 12.1191 20.216 15.0006 20.216Z" fill="#F0F0F0"/>
<path d="M12.3922 14.6719C11.4849 14.6719 10.6093 14.8099 9.78516 15.0659C9.82166 17.9159 12.1422 20.2154 15.0009 20.2154C16.7685 20.2154 18.3297 19.3355 19.2735 17.9907C17.6588 15.9694 15.1744 14.6719 12.3922 14.6719Z" fill="#0052B4"/>
<path d="M20.1202 15.9982C20.183 15.6746 20.2169 15.3406 20.2169 14.9986C20.2169 12.1171 17.881 9.78125 14.9996 9.78125C12.8495 9.78125 11.0038 11.0821 10.2051 12.9394C10.9111 12.7931 11.6421 12.716 12.3909 12.716C15.4212 12.716 18.1626 13.9756 20.1202 15.9982Z" fill="#0052B4"/>
</svg>
