<svg  viewBox="0 0 30 30" fill="none" xmlns="http://www.w3.org/2000/svg">
<path d="M15 30C23.2843 30 30 23.2843 30 15C30 6.71573 23.2843 0 15 0C6.71573 0 0 6.71573 0 15C0 23.2843 6.71573 30 15 30Z" fill="#F0F0F0"/>
<path d="M29.9997 14.9999C29.9997 9.05297 26.5389 3.91453 21.5215 1.48828V28.5114C26.5389 26.0852 29.9997 20.9468 29.9997 14.9999Z" fill="#D80027"/>
<path d="M0 14.9999C0 20.9468 3.46084 26.0852 8.47828 28.5115V1.48828C3.46084 3.91453 0 9.05297 0 14.9999Z" fill="#D80027"/>
<path d="M17.6093 16.9553L20.2179 15.651L18.9136 14.9988V13.6945L16.3049 14.9988L17.6093 12.3901H16.3049L15.0006 10.4336L13.6962 12.3901H12.3919L13.6962 14.9988L11.0875 13.6945V14.9988L9.7832 15.651L12.3919 16.9553L11.7397 18.2597H14.3484V20.2162H15.6527V18.2597H18.2614L17.6093 16.9553Z" fill="#D80027"/>
</svg>
