<svg  viewBox="0 0 30 30" fill="none" xmlns="http://www.w3.org/2000/svg">
<path d="M15 30C23.2843 30 30 23.2843 30 15C30 6.71573 23.2843 0 15 0C6.71573 0 0 6.71573 0 15C0 23.2843 6.71573 30 15 30Z" fill="#F7F7F7"/>
<path d="M30 14.9983C30 23.2825 23.2842 29.9983 15 29.9983C6.71578 29.9983 0 23.2825 0 14.9983C0 6.71406 15 14.9983 15 14.9983C15 14.9983 26.3532 14.9983 30 14.9983Z" fill="#D80027"/>
<path d="M0 15C0 6.71578 6.71578 0 15 0C15 5.70439 15 15 15 15C15 15 5.21736 15 0 15Z" fill="#0052B4"/>
<path d="M8.92891 5.21875L9.90021 8.20809H13.0434L10.5005 10.0555L11.4718 13.0449L8.92891 11.1974L6.38605 13.0449L7.3573 10.0555L4.81445 8.20809H7.9576L8.92891 5.21875Z" fill="#F0F0F0"/>
</svg>
