<svg viewBox="0 0 30 30" fill="none" xmlns="http://www.w3.org/2000/svg">
<path d="M15 30C23.2843 30 30 23.2843 30 15C30 6.71573 23.2843 0 15 0C6.71573 0 0 6.71573 0 15C0 23.2843 6.71573 30 15 30Z" fill="#F7F7F7"/>
<path d="M29.067 9.78125H0.932988C0.330059 11.4062 0 13.1638 0 14.9986C0 16.8334 0.330059 18.591 0.932988 20.216H29.0671C29.67 18.591 30 16.8334 30 14.9986C30 13.1638 29.67 11.4062 29.067 9.78125Z" fill="#D80027"/>
<path d="M14.9997 0C10.4533 0 6.37971 2.02289 3.62891 5.21736H26.3704C23.6196 2.02289 19.546 0 14.9997 0Z" fill="#0052B4"/>
<path d="M26.3704 24.7812H3.62891C6.37971 27.9757 10.4533 29.9986 14.9997 29.9986C19.546 29.9986 23.6196 27.9757 26.3704 24.7812Z" fill="#0052B4"/>
</svg>
