<svg  viewBox="0 0 30 30" fill="none" xmlns="http://www.w3.org/2000/svg">
<path d="M15 30C23.2843 30 30 23.2843 30 15C30 6.71573 23.2843 0 15 0C6.71573 0 0 6.71573 0 15C0 23.2843 6.71573 30 15 30Z" fill="#F7F7F7"/>
<path d="M0.517578 18.9141C1.90262 24.0529 5.94893 28.0993 11.0878 29.4843V18.9141H0.517578Z" fill="#D80027"/>
<path d="M11.0878 0.515625C5.94893 1.90061 1.90256 5.94697 0.517578 11.0858H11.0878V0.515625H11.0878Z" fill="#0052B4"/>
<path d="M29.4823 11.0858C28.0973 5.94697 24.051 1.90061 18.9121 0.515625V11.0859H29.4823V11.0858Z" fill="#D80027"/>
<path d="M18.9121 29.4843C24.051 28.0993 28.0973 24.053 29.4824 18.9141H18.9121V29.4843Z" fill="#0052B4"/>
<path d="M18.914 14.999C18.914 17.1602 17.1621 18.9121 15.001 18.9121C12.8398 18.9121 11.0879 17.1602 11.0879 14.999C11.0879 12.8378 15.001 11.0859 15.001 11.0859C15.001 11.0859 18.914 12.8378 18.914 14.999Z" fill="#496E2D"/>
<path d="M11.0879 14.999C11.0879 12.8378 12.8398 11.0859 15.001 11.0859C17.1621 11.0859 18.914 12.8378 18.914 14.999" fill="#0052B4"/>
<path d="M12.7988 13.043V15.4886C12.7988 16.7043 13.7843 17.6897 14.9999 17.6897C16.2155 17.6897 17.201 16.7043 17.201 15.4886V13.043H12.7988Z" fill="#D80027"/>
</svg>
