<svg  viewBox="0 0 30 30" fill="none" xmlns="http://www.w3.org/2000/svg">
<g clip-path="url(#clip0)">
<path d="M0 15C0 6.71578 6.71578 0 15 0C23.2842 0 30 6.71578 30 15L15 16.3044L0 15Z" fill="#FFDA44"/>
<path d="M2.00781 22.5017C4.60146 26.9851 9.44857 30.0017 15.0006 30.0017C20.5527 30.0017 25.3998 26.9851 27.9934 22.5017L15.0006 21.5234L2.00781 22.5017Z" fill="#D80027"/>
<path d="M27.9928 22.5C29.2691 20.2937 30 17.7323 30 15H0C0 17.7323 0.730898 20.2937 2.00719 22.5H27.9928Z" fill="#0052B4"/>
<path d="M15.0006 20.216C17.882 20.216 20.2179 17.8801 20.2179 14.9986C20.2179 12.1171 17.882 9.78125 15.0006 9.78125C12.1191 9.78125 9.7832 12.1171 9.7832 14.9986C9.7832 17.8801 12.1191 20.216 15.0006 20.216Z" fill="#FFDA44"/>
<path d="M15.0011 18.2595C13.203 18.2595 11.7402 16.7966 11.7402 14.9986V13.0421C11.7402 11.244 13.2031 9.78125 15.0011 9.78125C16.7991 9.78125 18.2619 11.2441 18.2619 13.0421V14.9986C18.2619 16.7967 16.7991 18.2595 15.0011 18.2595Z" fill="#338AF3"/>
<path d="M20.218 7.17545H16.305C16.305 6.4551 15.721 5.87109 15.0006 5.87109C14.2803 5.87109 13.6963 6.4551 13.6963 7.17545H9.7832C9.7832 7.89586 10.4107 8.4798 11.131 8.4798H11.0876C11.0876 9.20021 11.6715 9.78415 12.3919 9.78415C12.3919 10.5046 12.9759 11.0885 13.6963 11.0885H16.305C17.0254 11.0885 17.6093 10.5046 17.6093 9.78415C18.3297 9.78415 18.9137 9.20021 18.9137 8.4798H18.8703C19.5906 8.4798 20.218 7.8958 20.218 7.17545Z" fill="black"/>
</g>
<defs>
<clipPath id="clip0">
<rect width="30" height="30" fill="white"/>
</clipPath>
</defs>
</svg>
