<svg  viewBox="0 0 30 30" fill="none" xmlns="http://www.w3.org/2000/svg">
<g clip-path="url(#clip0)">
<path d="M0 14.9983C0 16.8331 0.330059 18.5907 0.932988 20.2157L15 21.52L29.067 20.2157C29.6699 18.5907 30 16.8331 30 14.9983C30 13.1635 29.6699 11.4059 29.067 9.78092L15 8.47656L0.932988 9.78092C0.330059 11.4059 0 13.1635 0 14.9983Z" fill="#FFDA44"/>
<path d="M29.0676 9.78264C26.9482 4.07068 21.4501 0 15.0006 0C8.55113 0 3.05299 4.07068 0.933594 9.78264H29.0676Z" fill="#D80027"/>
<path d="M0.933594 20.2188C3.05299 25.9307 8.55113 30.0014 15.0006 30.0014C21.4501 30.0014 26.9482 25.9307 29.0676 20.2188H0.933594Z" fill="#D80027"/>
</g>
<defs>
<clipPath id="clip0">
<rect width="30" height="30" fill="white"/>
</clipPath>
</defs>
</svg>
