<svg  viewBox="0 0 30 30" fill="none" xmlns="http://www.w3.org/2000/svg">
<path d="M15 30C23.2843 30 30 23.2843 30 15C30 6.71573 23.2843 0 15 0C6.71573 0 0 6.71573 0 15C0 23.2843 6.71573 30 15 30Z" fill="#0052B4"/>
<path d="M15.0006 5.87109L15.4863 7.36576H17.0577L15.7863 8.2895L16.272 9.78417L15.0006 8.86037L13.7291 9.78417L14.2148 8.2895L12.9434 7.36576H14.5149L15.0006 5.87109Z" fill="#FFDA44"/>
<path d="M8.54416 8.54617L9.94455 9.25961L11.0558 8.14844L10.8099 9.70059L12.2102 10.4141L10.658 10.6599L10.4121 12.2122L9.69863 10.8119L8.14648 11.0578L9.25772 9.94656L8.54416 8.54617Z" fill="#FFDA44"/>
<path d="M5.86914 15.0025L7.36381 14.5169V12.9453L8.28748 14.2168L9.78221 13.7311L8.85836 15.0025L9.78221 16.274L8.28748 15.7883L7.36381 17.0598V15.4882L5.86914 15.0025Z" fill="#FFDA44"/>
<path d="M8.54416 21.4589L9.25766 20.0586L8.14648 18.9473L9.69869 19.1933L10.4121 17.793L10.658 19.3452L12.2101 19.591L10.81 20.3045L11.0558 21.8567L9.94455 20.7454L8.54416 21.4589Z" fill="#FFDA44"/>
<path d="M15.0006 24.1317L14.5148 22.637H12.9434L14.2148 21.7133L13.7291 20.2188L15.0006 21.1424L16.272 20.2188L15.7863 21.7133L17.0577 22.637H15.4862L15.0006 24.1317Z" fill="#FFDA44"/>
<path d="M21.455 21.4589L20.0546 20.7455L18.9434 21.8567L19.1893 20.3045L17.7891 19.591L19.3412 19.3452L19.5871 17.793L20.3005 19.1933L21.8527 18.9473L20.7414 20.0587L21.455 21.4589Z" fill="#FFDA44"/>
<path d="M24.1297 15.0025L22.6351 15.4882V17.0598L21.7113 15.7883L20.2168 16.274L21.1405 15.0025L20.2168 13.7311L21.7114 14.2168L22.6351 12.9453V14.5169L24.1297 15.0025Z" fill="#FFDA44"/>
<path d="M21.455 8.54611L20.7415 9.9465L21.8527 11.0577L20.3004 10.8118L19.5871 12.2121L19.3412 10.6599L17.7891 10.414L19.1893 9.70053L18.9434 8.14844L20.0547 9.25961L21.455 8.54611Z" fill="#FFDA44"/>
</svg>
