<svg viewBox="0 0 30 30" fill="none" xmlns="http://www.w3.org/2000/svg">
<path d="M15 30C23.2843 30 30 23.2843 30 15C30 6.71573 23.2843 0 15 0C6.71573 0 0 6.71573 0 15C0 23.2843 6.71573 30 15 30Z" fill="#F7F7F7"/>
<path d="M3.10162 5.86719C1.92336 7.40018 1.0349 9.16707 0.517578 11.0865H8.32098L3.10162 5.86719Z" fill="#0052B4"/>
<path d="M29.4849 11.0865C28.9676 9.16707 28.0791 7.40018 26.9009 5.86719L21.6816 11.0865H29.4849Z" fill="#0052B4"/>
<path d="M0.517578 18.9102C1.03496 20.8296 1.92342 22.5965 3.10162 24.1294L8.3208 18.9102H0.517578Z" fill="#0052B4"/>
<path d="M24.1334 3.09973C22.6004 1.92146 20.8335 1.03301 18.9141 0.515625V8.31896L24.1334 3.09973Z" fill="#0052B4"/>
<path d="M5.86914 26.8989C7.40213 28.0771 9.16902 28.9656 11.0884 29.483V21.6797L5.86914 26.8989Z" fill="#0052B4"/>
<path d="M11.0884 0.515625C9.16896 1.03301 7.40207 1.92146 5.86914 3.09967L11.0884 8.31891V0.515625Z" fill="#0052B4"/>
<path d="M18.9141 29.483C20.8335 28.9656 22.6004 28.0771 24.1333 26.8989L18.9141 21.6797V29.483Z" fill="#0052B4"/>
<path d="M21.6816 18.9102L26.9009 24.1295C28.0791 22.5965 28.9676 20.8296 29.4849 18.9102H21.6816Z" fill="#0052B4"/>
<path d="M29.873 13.0435H16.9566H16.9566V0.126973C16.3161 0.0435938 15.6631 0 15 0C14.3368 0 13.6839 0.0435938 13.0435 0.126973V13.0434V13.0434H0.126973C0.0435938 13.6839 0 14.3369 0 15C0 15.6632 0.0435938 16.3161 0.126973 16.9565H13.0434H13.0434V29.873C13.6839 29.9564 14.3368 30 15 30C15.6631 30 16.3161 29.9565 16.9565 29.873V16.9566V16.9566H29.873C29.9564 16.3161 30 15.6632 30 15C30 14.3369 29.9564 13.6839 29.873 13.0435Z" fill="#D80027"/>
<path d="M18.9121 18.9141L25.6056 25.6076C25.9135 25.2999 26.2071 24.9782 26.4873 24.6446L20.7568 18.9141H18.9121V18.9141Z" fill="#D80027"/>
<path d="M11.0861 18.9141H11.086L4.39258 25.6075C4.70031 25.9154 5.02205 26.209 5.35557 26.4892L11.0861 20.7585V18.9141Z" fill="#D80027"/>
<path d="M11.087 11.0882V11.0881L4.39344 4.39453C4.08559 4.70227 3.79191 5.024 3.51172 5.35752L9.24236 11.0882H11.087V11.0882Z" fill="#D80027"/>
<path d="M18.9121 11.087L25.6057 4.39338C25.298 4.08553 24.9762 3.79186 24.6427 3.51172L18.9121 9.24237V11.087V11.087Z" fill="#D80027"/>
</svg>
