<svg  viewBox="0 0 30 30" fill="none" xmlns="http://www.w3.org/2000/svg">
<g clip-path="url(#clip0)">
<path d="M15 30C23.2843 30 30 23.2843 30 15C30 6.71573 23.2843 0 15 0C6.71573 0 0 6.71573 0 15C0 23.2843 6.71573 30 15 30Z" fill="#F7F7F7"/>
<path d="M14.9999 30.0017C20.9467 30.0017 26.0852 26.5409 28.5115 21.5234H1.48828C3.91453 26.5409 9.05297 30.0017 14.9999 30.0017Z" fill="#338AF3"/>
<path d="M14.9999 0C9.05297 0 3.91453 3.46084 1.48828 8.47828H28.5114C26.0852 3.46084 20.9467 0 14.9999 0Z" fill="#338AF3"/>
<path d="M9.23105 9.78125L9.71668 11.2759H11.2882L10.0169 12.1996L10.5025 13.6943L9.23105 12.7705L7.95957 13.6943L8.44525 12.1996L7.17383 11.2759H8.74537L9.23105 9.78125Z" fill="#338AF3"/>
<path d="M9.23105 16.3047L9.71668 17.7994H11.2882L10.0169 18.7231L10.5025 20.2177L9.23105 19.294L7.95957 20.2177L8.44525 18.7231L7.17383 17.7994H8.74537L9.23105 16.3047Z" fill="#338AF3"/>
<path d="M20.7682 9.78125L21.2538 11.2759H22.8254L21.554 12.1996L22.0396 13.6943L20.7682 12.7705L19.4967 13.6943L19.9824 12.1996L18.7109 11.2759H20.2825L20.7682 9.78125Z" fill="#338AF3"/>
<path d="M20.7682 16.3047L21.2538 17.7994H22.8254L21.554 18.7231L22.0396 20.2177L20.7682 19.294L19.4967 20.2177L19.9824 18.7231L18.7109 17.7994H20.2825L20.7682 16.3047Z" fill="#338AF3"/>
<path d="M15.0006 13.043L15.4863 14.5377H17.0578L15.7864 15.4614L16.2721 16.956L15.0006 16.0323L13.7291 16.956L14.2148 15.4614L12.9434 14.5377H14.5149L15.0006 13.043Z" fill="#338AF3"/>
</g>
<defs>
<clipPath id="clip0">
<rect width="30" height="30" fill="white"/>
</clipPath>
</defs>
</svg>
