<svg width="30" height="30" viewBox="0 0 30 30" fill="none" xmlns="http://www.w3.org/2000/svg">
  <g clip-path="url(#clip0_314_3246)">
    <path d="M15 30.0001C23.2843 30.0001 30 23.2844 30 15.0001C30 6.71585 23.2843 0.00012207 15 0.00012207C6.71573 0.00012207 0 6.71585 0 15.0001C0 23.2844 6.71573 30.0001 15 30.0001Z" fill="#F7F7F7"/>
    <path d="M30 15.0001C30 8.55064 25.9293 3.0525 20.2173 0.933105V29.0672C25.9293 26.9477 30 21.4496 30 15.0001Z" fill="#D80027"/>
    <path d="M0 15.0001C0 21.4496 4.07062 26.9477 9.78264 29.0671V0.933105C4.07062 3.0525 0 8.55064 0 15.0001Z" fill="#6DA544"/>
  </g>
  <defs>
    <clipPath id="clip0_314_3246">
      <rect width="30" height="30" fill="white"/>
    </clipPath>
  </defs>
</svg>
