<svg viewBox="0 0 30 30" fill="none" xmlns="http://www.w3.org/2000/svg">
<path d="M15 30C23.2843 30 30 23.2843 30 15C30 6.71573 23.2843 0 15 0C6.71573 0 0 6.71573 0 15C0 23.2843 6.71573 30 15 30Z" fill="#F7F7F7"/>
<path d="M20.2179 14.9986C20.2179 16.303 17.882 19.5638 15.0006 19.5638C12.1191 19.5638 9.7832 16.303 9.7832 14.9986C9.7832 12.1171 12.1191 9.78125 15.0006 9.78125C17.882 9.78125 20.2179 12.1171 20.2179 14.9986Z" fill="#D80027"/>
<path d="M20.2179 15C20.2179 17.8815 17.882 20.2174 15.0006 20.2174C12.1191 20.2174 9.7832 17.8815 9.7832 15" fill="#0052B4"/>
<path d="M21.9167 18.2298L20.5332 19.6133L21.4555 20.5356L22.839 19.1521L21.9167 18.2298Z" fill="black"/>
<path d="M19.61 20.5345L18.2266 21.918L19.1489 22.8403L20.5323 21.4568L19.61 20.5345Z" fill="black"/>
<path d="M24.6842 20.9955L23.3008 22.3789L24.2231 23.3012L25.6065 21.9178L24.6842 20.9955Z" fill="black"/>
<path d="M22.3776 23.3002L20.9941 24.6836L21.9165 25.6059L23.2999 24.2225L22.3776 23.3002Z" fill="black"/>
<path d="M23.3014 19.6127L21.918 20.9961L22.8403 21.9184L24.2237 20.535L23.3014 19.6127Z" fill="black"/>
<path d="M20.9948 21.9173L19.6113 23.3008L20.5336 24.2231L21.9171 22.8396L20.9948 21.9173Z" fill="black"/>
<path d="M19.6116 6.69752L23.3008 10.3867L24.2231 9.46441L20.5339 5.77521L19.6116 6.69752Z" fill="black"/>
<path d="M18.2279 8.0814L19.6113 9.46484L20.5336 8.54258L19.1502 7.15913L18.2279 8.0814Z" fill="black"/>
<path d="M20.5345 10.39L21.918 11.7734L22.8402 10.8512L21.4568 9.46773L20.5345 10.39Z" fill="black"/>
<path d="M20.9935 5.31578L22.377 6.69922L23.2993 5.77691L21.9158 4.39347L20.9935 5.31578Z" fill="black"/>
<path d="M23.3021 7.62046L24.6855 9.00391L25.6079 8.0816L24.2244 6.69815L23.3021 7.62046Z" fill="black"/>
<path d="M9.00561 24.6853L5.31641 20.9961L4.39409 21.9184L8.0833 25.6076L9.00561 24.6853Z" fill="black"/>
<path d="M10.3874 23.3014L9.00391 21.918L8.08164 22.8402L9.46508 24.2237L10.3874 23.3014Z" fill="black"/>
<path d="M8.08266 20.9967L6.69922 19.6133L5.77691 20.5356L7.16035 21.919L8.08266 20.9967Z" fill="black"/>
<path d="M11.7712 21.9158L8.08203 18.2266L7.15972 19.1489L10.8489 22.8381L11.7712 21.9158Z" fill="black"/>
<path d="M5.31471 9.00561L9.00391 5.31641L8.0816 4.3941L4.3924 8.0833L5.31471 9.00561Z" fill="black"/>
<path d="M6.69947 10.3884L10.3887 6.69922L9.46636 5.77691L5.77717 9.46611L6.69947 10.3884Z" fill="black"/>
<path d="M8.08229 11.7712L11.7715 8.08203L10.8492 7.15976L7.16002 10.849L8.08229 11.7712Z" fill="black"/>
</svg>
