<svg  viewBox="0 0 30 30" fill="none" xmlns="http://www.w3.org/2000/svg">
<path d="M15 30C23.2843 30 30 23.2843 30 15C30 6.71573 23.2843 0 15 0C6.71573 0 0 6.71573 0 15C0 23.2843 6.71573 30 15 30Z" fill="#F7F7F7"/>
<path d="M29.9998 14.9999C29.9998 9.05297 26.5389 3.91453 21.5215 1.48828V28.5114C26.5389 26.0852 29.9998 20.9468 29.9998 14.9999Z" fill="#CE1126"/>
<path d="M0 14.9999C0 20.9468 3.46084 26.0852 8.47828 28.5115V1.48828C3.46084 3.91453 0 9.05297 0 14.9999Z" fill="#048C61"/>
<path d="M16.2941 15.4531L15.1602 16.0202V16.5873H15.7272L16.2941 15.4531Z" fill="#FFD250"/>
<path d="M15.1586 18.0019C15.0018 18.0019 14.875 17.875 14.875 17.7183V16.5843C14.875 16.4276 15.0018 16.3008 15.1586 16.3008C15.3153 16.3008 15.4421 16.4276 15.4421 16.5843V17.7183C15.4421 17.875 15.3153 18.0019 15.1586 18.0019Z" fill="#00C3A0"/>
<path d="M15.1595 16.8688C14.0459 16.8688 12.9706 16.4391 12.1315 15.6589C12.0169 15.5523 12.0103 15.3729 12.1168 15.2584C12.2242 15.144 12.4034 15.1379 12.5173 15.2436C13.2513 15.9261 14.1896 16.3018 15.1594 16.3018C16.1293 16.3018 17.0676 15.9261 17.8015 15.2436C17.9159 15.1376 18.095 15.1434 18.2021 15.2584C18.3087 15.373 18.302 15.5524 18.1873 15.6589C17.3484 16.4392 16.2731 16.8688 15.1595 16.8688Z" fill="#00C3A0"/>
<path d="M15.1591 18.0047C14.4323 18.0047 13.7283 17.7923 13.123 17.3903L13.437 16.918C14.4603 17.5979 15.8579 17.5979 16.8811 16.918L17.1951 17.3903C16.5899 17.7924 15.8859 18.0047 15.1591 18.0047Z" fill="#00AADC"/>
<path d="M14.7109 14.1758L14.0849 15.1446L13.9785 15.4634L15.6087 15.0854L14.7109 14.1758Z" fill="#732D37"/>
<path d="M13.4248 15.7751C12.6753 15.7751 11.7757 15.1444 11.5371 13.739L12.0964 13.6444C12.2947 14.813 13.0136 15.2089 13.4453 15.2078C13.5776 15.2042 13.7157 15.1585 13.7266 15.065C13.7393 14.9531 13.7424 14.9266 13.4459 14.8263C13.2847 14.7717 13.102 14.7101 12.9738 14.5633C12.4552 13.9711 13.1573 13.3444 13.4946 13.0432C13.5542 12.99 13.5788 12.9448 13.5725 12.9277C13.5539 12.8792 13.4427 12.8059 13.3172 12.8059C12.957 12.8059 12.6838 12.6024 12.6044 12.2752C12.5218 11.9363 12.6777 11.5791 12.9745 11.4258L13.2349 11.9297C13.1653 11.9656 13.1377 12.068 13.1554 12.1412C13.1623 12.1705 13.1792 12.2389 13.3174 12.2389C13.6645 12.2389 13.9949 12.4438 14.1023 12.7256C14.1482 12.8458 14.2174 13.1581 13.8725 13.4662C13.5001 13.7988 13.2772 14.049 13.4007 14.19C13.4287 14.2218 13.5486 14.2625 13.6277 14.2891C13.883 14.3755 14.3581 14.5361 14.29 15.1299C14.2474 15.5034 13.9141 15.7625 13.4611 15.7748C13.4489 15.7748 13.4367 15.7751 13.4248 15.7751Z" fill="#AAD264"/>
<path d="M15.7272 12.6182C15.7272 12.6182 16.2942 11.4842 15.1602 10.9172C15.1602 10.9172 19.1292 10.3502 18.5622 15.4533L18.562 15.4531C18.1899 15.1554 17.6374 14.6113 17.4401 14.1775L15.7272 13.1852V12.6182Z" fill="#874150"/>
<path d="M15.1602 13.7539L17.9952 15.4549C17.9952 15.4549 17.9952 15.4549 16.8612 16.022L15.1602 14.321V13.7539Z" fill="#732D37"/>
<path d="M14.0254 12.0513C14.3385 12.0513 14.5924 12.3052 14.5924 12.6184L14.5918 12.619C14.2535 12.9573 14.1697 13.4739 14.3837 13.9018L14.5118 14.1581C14.5652 14.2649 14.6355 14.3625 14.7199 14.447L16.2935 16.0206V15.2369C16.2935 14.2607 16.0663 13.2979 15.6297 12.4247C15.3415 11.8484 14.7525 11.4844 14.1082 11.4844H14.0255V12.0515H14.0254V12.0513V12.0513Z" fill="#783C46"/>
<path d="M14.026 11.4844L13.459 12.0514V12.6184C13.459 12.6184 14.1335 12.2765 14.3608 12.1675C14.5197 12.0914 14.4908 11.9114 14.3996 11.8246C14.3286 11.7571 14.026 11.4844 14.026 11.4844Z" fill="#FFD250"/>
<path d="M15.1594 19.1399C12.5018 19.1399 10.3398 16.9779 10.3398 14.3203H10.9069C10.9069 16.6654 12.8144 18.5729 15.1595 18.5729C17.5046 18.5729 19.4121 16.6654 19.4121 14.3203H19.9792C19.979 16.9779 17.817 19.1399 15.1594 19.1399Z" fill="#AAD264"/>
<path d="M10.9375 16.3867C11.15 16.3867 11.3223 16.2145 11.3223 16.002C11.3223 15.7895 11.15 15.6172 10.9375 15.6172C10.725 15.6172 10.5527 15.7895 10.5527 16.002C10.5527 16.2145 10.725 16.3867 10.9375 16.3867Z" fill="#FFE15A"/>
<path d="M11.7871 17.7461C11.9996 17.7461 12.1719 17.5738 12.1719 17.3613C12.1719 17.1488 11.9996 16.9766 11.7871 16.9766C11.5746 16.9766 11.4023 17.1488 11.4023 17.3613C11.4023 17.5738 11.5746 17.7461 11.7871 17.7461Z" fill="#FFE15A"/>
<path d="M13.1699 18.7735C13.3824 18.7735 13.5547 18.6012 13.5547 18.3887C13.5547 18.1762 13.3824 18.0039 13.1699 18.0039C12.9574 18.0039 12.7852 18.1762 12.7852 18.3887C12.7852 18.6012 12.9574 18.7735 13.1699 18.7735Z" fill="#FFE15A"/>
<path d="M19.4199 16.3867C19.6324 16.3867 19.8047 16.2145 19.8047 16.002C19.8047 15.7895 19.6324 15.6172 19.4199 15.6172C19.2074 15.6172 19.0352 15.7895 19.0352 16.002C19.0352 16.2145 19.2074 16.3867 19.4199 16.3867Z" fill="#FFE15A"/>
<path d="M18.5703 17.7461C18.7828 17.7461 18.9551 17.5738 18.9551 17.3613C18.9551 17.1488 18.7828 16.9766 18.5703 16.9766C18.3578 16.9766 18.1855 17.1488 18.1855 17.3613C18.1855 17.5738 18.3578 17.7461 18.5703 17.7461Z" fill="#FFE15A"/>
<path d="M17.1875 18.7735C17.4 18.7735 17.5723 18.6012 17.5723 18.3887C17.5723 18.1762 17.4 18.0039 17.1875 18.0039C16.975 18.0039 16.8027 18.1762 16.8027 18.3887C16.8027 18.6012 16.975 18.7735 17.1875 18.7735Z" fill="#FFE15A"/>
<path d="M15.4427 18.2864H14.8756C14.5625 18.2864 14.3086 18.0325 14.3086 17.7194C14.3086 17.4063 14.5625 17.1523 14.8756 17.1523H15.4427C15.7558 17.1523 16.0097 17.4063 16.0097 17.7194C16.0097 18.0326 15.7558 18.2864 15.4427 18.2864Z" fill="#FFB478"/>
<path d="M17.4401 14.1774C17.6291 14.7326 18.0307 15.2406 18.562 15.453L18.5622 15.4532C19.1292 10.3502 15.1602 10.9172 15.1602 10.9172C17.9952 10.9172 17.4401 14.1774 17.4401 14.1774Z" fill="#9B4B5A"/>
</svg>
