<svg viewBox="0 0 30 30" fill="none" xmlns="http://www.w3.org/2000/svg">
<g clip-path="url(#clip0)">
<path d="M15 30C23.2843 30 30 23.2843 30 15C30 6.71573 23.2843 0 15 0C6.71573 0 0 6.71573 0 15C0 23.2843 6.71573 30 15 30Z" fill="#F7F7F7"/>
<path d="M14.9999 0C9.05297 0 3.91453 3.46084 1.48828 8.47828H28.5114C26.0852 3.46084 20.9467 0 14.9999 0Z" fill="#338AF3"/>
<path d="M14.9999 30.0017C20.9467 30.0017 26.0852 26.5409 28.5115 21.5234H1.48828C3.91453 26.5409 9.05297 30.0017 14.9999 30.0017Z" fill="#338AF3"/>
<path d="M15.0008 10.4336C12.4795 10.4336 10.4355 12.4775 10.4355 14.9988C10.4355 17.5201 12.4795 19.564 15.0008 19.564C17.522 19.564 19.566 17.5201 19.566 14.9988C19.566 12.4775 17.522 10.4336 15.0008 10.4336ZM15.0008 17.6075C13.5601 17.6075 12.3921 16.4396 12.3921 14.9988C12.3921 13.558 13.56 12.3901 15.0008 12.3901C16.4415 12.3901 17.6095 13.558 17.6095 14.9988C17.6095 16.4396 16.4415 17.6075 15.0008 17.6075Z" fill="#FFDA44"/>
<path d="M17.2598 15.6521L15.0006 15L12.7413 15.6521L11.9883 16.9565H18.0128L17.2598 15.6521Z" fill="#0052B4"/>
<path d="M15.0003 11.7383L13.4941 14.347L15.0003 14.9992L16.5065 14.347L15.0003 11.7383Z" fill="#338AF3"/>
<path d="M12.7402 15.652H17.2587L16.5056 14.3477H13.4933L12.7402 15.652Z" fill="#6DA544"/>
</g>
<defs>
<clipPath id="clip0">
<rect width="30" height="30" fill="white"/>
</clipPath>
</defs>
</svg>
