<svg  viewBox="0 0 30 30" fill="none" xmlns="http://www.w3.org/2000/svg">
<path d="M15 30C23.2843 30 30 23.2843 30 15C30 6.71573 23.2843 0 15 0C6.71573 0 0 6.71573 0 15C0 23.2843 6.71573 30 15 30Z" fill="#F7F7F7"/>
<path d="M0 15C0 23.2842 6.71578 30 15 30C15 24.2956 15 15 15 15C15 15 5.21736 15 0 15Z" fill="#0052B4"/>
<path d="M15 0C23.2842 0 30 6.71578 30 15C24.2956 15 15 15 15 15C15 15 15 5.21736 15 0Z" fill="#D80027"/>
<path d="M8.92891 5.21875L9.90021 8.20809H13.0434L10.5005 10.0555L11.4718 13.0449L8.92891 11.1974L6.38605 13.0449L7.3573 10.0555L4.81445 8.20809H7.9576L8.92891 5.21875Z" fill="#0052B4"/>
<path d="M21.0715 16.957L22.0428 19.9464H25.1859L22.643 21.7938L23.6143 24.7832L21.0715 22.9356L18.5286 24.7832L19.4999 21.7938L16.957 19.9464H20.1002L21.0715 16.957Z" fill="#D80027"/>
</svg>
