<svg viewBox="0 0 30 30" fill="none" xmlns="http://www.w3.org/2000/svg">
<g clip-path="url(#clip0)">
<path d="M15 30C23.2843 30 30 23.2843 30 15C30 6.71573 23.2843 0 15 0C6.71573 0 0 6.71573 0 15C0 23.2843 6.71573 30 15 30Z" fill="#F0F0F0"/>
<path d="M14.9999 0C9.05297 0 3.91453 3.46084 1.48828 8.47828H28.5114C26.0852 3.46084 20.9467 0 14.9999 0Z" fill="#0052B4"/>
<path d="M14.9999 30.0017C20.9467 30.0017 26.0852 26.5409 28.5115 21.5234H1.48828C3.91453 26.5409 9.05297 30.0017 14.9999 30.0017Z" fill="#0052B4"/>
<path d="M11.9883 15.651L15.0006 10.4336L18.0129 15.651H11.9883Z" fill="#FFDA44"/>
<path d="M18.914 17.3743L15.001 19.3308L11.0879 17.3743V14.7656H18.914V17.3743Z" fill="#6DA544"/>
<path d="M18.6898 10.6602L17.3063 12.0436C17.8964 12.6337 18.2614 13.4489 18.2614 14.3494C18.2614 16.1503 16.8015 17.6103 15.0006 17.6103C13.1997 17.6103 11.7397 16.1503 11.7397 14.3494C11.7397 13.4489 12.1047 12.6337 12.6948 12.0436L11.3114 10.6602C10.3671 11.6042 9.7832 12.9086 9.7832 14.3494C9.7832 17.2309 12.1191 19.5668 15.0006 19.5668C17.882 19.5668 20.2179 17.2309 20.2179 14.3494C20.2179 12.9086 19.6339 11.6042 18.6898 10.6602Z" fill="#FFDA44"/>
</g>
<defs>
<clipPath id="clip0">
<rect width="30" height="30" fill="white"/>
</clipPath>
</defs>
</svg>
